<svg width="144" height="42" viewBox="0 0 144 42" fill="none" xmlns="http://www.w3.org/2000/svg">
<path d="M0.963379 31.6803C0.963379 26.4168 5.23026 22.15 10.4937 22.15H20.0241V31.6803C20.0241 36.9438 15.7572 41.2107 10.4937 41.2107V41.2107C5.23026 41.2107 0.963379 36.9438 0.963379 31.6803V31.6803Z" fill="#2D1069" fill-opacity="0.5"/>
<path d="M10.4937 0.706665C15.7572 0.706665 20.0241 4.97355 20.0241 10.237V19.7674H10.4937C5.23028 19.7674 0.963394 15.5005 0.963394 10.237V10.237C0.963394 4.97355 5.23028 0.706665 10.4937 0.706665V0.706665Z" fill="#2D1069" fill-opacity="0.5"/>
<path d="M41.4674 10.237C41.4674 15.5005 37.2005 19.7674 31.937 19.7674H22.4067L22.4067 10.237C22.4067 4.97355 26.6736 0.706665 31.937 0.706665V0.706665C37.2005 0.706665 41.4674 4.97355 41.4674 10.237V10.237Z" fill="#2D1069" fill-opacity="0.5"/>
<path d="M31.937 41.2107C26.6735 41.2107 22.4067 36.9438 22.4067 31.6803V22.15H31.937C37.2005 22.15 41.4674 26.4168 41.4674 31.6803V31.6803C41.4674 36.9438 37.2005 41.2107 31.937 41.2107V41.2107Z" fill="#2D1069" fill-opacity="0.5"/>
<path d="M53.1386 19.7674C51.7444 19.7674 50.6766 19.3703 49.9354 18.5761C49.2118 17.7819 48.85 16.6612 48.85 15.214V5.26005C48.85 3.81285 49.2118 2.69216 49.9354 1.89796C50.6766 1.10376 51.7444 0.706665 53.1386 0.706665C54.5329 0.706665 55.5918 1.10376 56.3154 1.89796C57.0567 2.69216 57.4273 3.81285 57.4273 5.26005V7.21907H54.6741V5.07474C54.6741 3.92757 54.1887 3.35399 53.2181 3.35399C52.2474 3.35399 51.762 3.92757 51.762 5.07474V15.4258C51.762 16.5553 52.2474 17.12 53.2181 17.12C54.1887 17.12 54.6741 16.5553 54.6741 15.4258V12.5931H57.4273V15.214C57.4273 16.6612 57.0567 17.7819 56.3154 18.5761C55.5918 19.3703 54.5329 19.7674 53.1386 19.7674Z" fill="#2D1069"/>
<path d="M59.1696 0.971397H62.0816V8.51626H65.2054V0.971397H68.1175V19.5026H65.2054V11.1636H62.0816V19.5026H59.1696V0.971397Z" fill="#2D1069"/>
<path d="M70.2862 0.971397H74.6014C76.1015 0.971397 77.1957 1.32437 77.884 2.03033C78.5723 2.71863 78.9165 3.78638 78.9165 5.23358V6.37193C78.9165 8.29565 78.2811 9.51342 77.0104 10.0252V10.0782C77.7164 10.29 78.2105 10.7224 78.4929 11.3754C78.793 12.0284 78.943 12.902 78.943 13.9962V17.2524C78.943 17.7819 78.9606 18.2143 78.9959 18.5496C79.0312 18.8673 79.1195 19.185 79.2606 19.5026H76.2956C76.1898 19.2026 76.1192 18.9202 76.0839 18.6555C76.0486 18.3908 76.0309 17.9142 76.0309 17.2259V13.8374C76.0309 12.9902 75.8897 12.399 75.6073 12.0637C75.3426 11.7283 74.8749 11.5607 74.2043 11.5607H73.1983V19.5026H70.2862V0.971397ZM74.2572 8.91336C74.8396 8.91336 75.272 8.76334 75.5544 8.46331C75.8544 8.16328 76.0044 7.66029 76.0044 6.95434V5.52479C76.0044 4.85413 75.8809 4.36879 75.6338 4.06876C75.4044 3.76873 75.0338 3.61872 74.5219 3.61872H73.1983V8.91336H74.2572Z" fill="#2D1069"/>
<path d="M80.9634 0.971397H83.8755V19.5026H80.9634V0.971397Z" fill="#2D1069"/>
<path d="M89.8421 19.7674C88.4302 19.7674 87.3624 19.3703 86.6388 18.5761C85.9152 17.7642 85.5534 16.6082 85.5534 15.1081V14.0492H88.3066V15.3199C88.3066 16.52 88.8096 17.12 89.8156 17.12C90.3098 17.12 90.6804 16.9789 90.9275 16.6965C91.1922 16.3964 91.3246 15.9199 91.3246 15.2669C91.3246 14.4904 91.1481 13.8109 90.7951 13.2285C90.4421 12.6284 89.7891 11.9137 88.8361 11.0842C87.636 10.0252 86.7976 9.0722 86.3211 8.22505C85.8446 7.36026 85.6064 6.38958 85.6064 5.313C85.6064 3.84815 85.977 2.71863 86.7182 1.92443C87.4595 1.11259 88.5361 0.706665 89.948 0.706665C91.3422 0.706665 92.3923 1.11259 93.0983 1.92443C93.8219 2.71863 94.1837 3.8658 94.1837 5.36595V6.13367H91.4305V5.18064C91.4305 4.54528 91.3069 4.08641 91.0598 3.80403C90.8127 3.504 90.4509 3.35399 89.9744 3.35399C89.0037 3.35399 88.5184 3.94522 88.5184 5.12769C88.5184 5.79834 88.6949 6.42488 89.0479 7.00729C89.4185 7.5897 90.0803 8.29565 91.0334 9.12514C92.2511 10.1841 93.0894 11.1459 93.5483 12.0107C94.0072 12.8755 94.2366 13.8903 94.2366 15.0551C94.2366 16.5729 93.8572 17.7378 93.0983 18.5496C92.357 19.3614 91.2716 19.7674 89.8421 19.7674Z" fill="#2D1069"/>
<path d="M99.4578 0.971397H102.264L103.561 15.214H103.614L104.991 0.971397H108.168L109.544 15.214H109.597L110.894 0.971397H113.409L111.53 19.5026H107.903L106.579 7.00729H106.526L105.203 19.5026H101.337L99.4578 0.971397Z" fill="#2D1069"/>
<path d="M116.77 0.971397H120.715L123.733 19.5026H120.821L120.291 15.8229V15.8758H116.982L116.453 19.5026H113.753L116.77 0.971397ZM119.947 13.3609L118.65 4.20113H118.597L117.326 13.3609H119.947Z" fill="#2D1069"/>
<path d="M125.146 0.971397H129.461C130.961 0.971397 132.055 1.32437 132.744 2.03033C133.432 2.71863 133.776 3.78638 133.776 5.23358V6.37193C133.776 8.29565 133.141 9.51342 131.87 10.0252V10.0782C132.576 10.29 133.07 10.7224 133.352 11.3754C133.652 12.0284 133.802 12.902 133.802 13.9962V17.2524C133.802 17.7819 133.82 18.2143 133.855 18.5496C133.891 18.8673 133.979 19.185 134.12 19.5026H131.155C131.049 19.2026 130.979 18.9202 130.943 18.6555C130.908 18.3908 130.89 17.9142 130.89 17.2259V13.8374C130.89 12.9902 130.749 12.399 130.467 12.0637C130.202 11.7283 129.734 11.5607 129.064 11.5607H128.058V19.5026H125.146V0.971397ZM129.117 8.91336C129.699 8.91336 130.132 8.76334 130.414 8.46331C130.714 8.16328 130.864 7.66029 130.864 6.95434V5.52479C130.864 4.85413 130.74 4.36879 130.493 4.06876C130.264 3.76873 129.893 3.61872 129.381 3.61872H128.058V8.91336H129.117Z" fill="#2D1069"/>
<path d="M135.823 0.971397H143.765V3.61872H138.735V8.51626H142.732V11.1636H138.735V16.8553H143.765V19.5026H135.823V0.971397Z" fill="#2D1069"/>
<path d="M51.8295 22.4113H55.7237L58.7032 40.7064H55.8282L55.3055 37.0735V37.1258H52.0385L51.5158 40.7064H48.85L51.8295 22.4113ZM54.9657 34.6429L53.6851 25.5999H53.6328L52.3783 34.6429H54.9657Z" fill="#2D1069"/>
<path d="M64.1241 40.9677C62.7302 40.9677 61.6673 40.5757 60.9355 39.7916C60.2037 38.9901 59.8378 37.8489 59.8378 36.3678V26.7499C59.8378 25.2688 60.2037 24.1363 60.9355 23.3522C61.6673 22.5507 62.7302 22.15 64.1241 22.15C65.518 22.15 66.5808 22.5507 67.3127 23.3522C68.0445 24.1363 68.4104 25.2688 68.4104 26.7499V28.318H65.6922V26.5669C65.6922 25.3647 65.1957 24.7635 64.2025 24.7635C63.2093 24.7635 62.7128 25.3647 62.7128 26.5669V36.5769C62.7128 37.7617 63.2093 38.3541 64.2025 38.3541C65.1957 38.3541 65.6922 37.7617 65.6922 36.5769V32.9963H64.2548V30.3827H68.4104V36.3678C68.4104 37.8489 68.0445 38.9901 67.3127 39.7916C66.5808 40.5757 65.518 40.9677 64.1241 40.9677Z" fill="#2D1069"/>
<path d="M70.2562 22.4113H78.0969V25.0249H73.1311V29.86H77.0776V32.4736H73.1311V38.0928H78.0969V40.7064H70.2562V22.4113Z" fill="#2D1069"/>
<path d="M79.7508 22.4113H83.3576L86.1541 33.3622H86.2064V22.4113H88.7677V40.7064H85.8143L82.3644 27.351H82.3121V40.7064H79.7508V22.4113Z" fill="#2D1069"/>
<path d="M94.9555 40.9677C93.579 40.9677 92.5249 40.5757 91.7931 39.7916C91.0787 39.0075 90.7215 37.9011 90.7215 36.4724V26.6453C90.7215 25.2166 91.0787 24.1101 91.7931 23.3261C92.5249 22.542 93.579 22.15 94.9555 22.15C96.332 22.15 97.3774 22.542 98.0918 23.3261C98.8236 24.1101 99.1895 25.2166 99.1895 26.6453V28.5794H96.4714V26.4624C96.4714 25.3298 95.9922 24.7635 95.0339 24.7635C94.0756 24.7635 93.5965 25.3298 93.5965 26.4624V36.6815C93.5965 37.7966 94.0756 38.3541 95.0339 38.3541C95.9922 38.3541 96.4714 37.7966 96.4714 36.6815V33.8849H99.1895V36.4724C99.1895 37.9011 98.8236 39.0075 98.0918 39.7916C97.3774 40.5757 96.332 40.9677 94.9555 40.9677Z" fill="#2D1069"/>
<path d="M103.32 32.9179L99.8435 22.4113H102.901L104.862 29.1282H104.914L106.874 22.4113H109.671L106.195 32.9179V40.7064H103.32V32.9179Z" fill="#2D1069"/>
</svg>
