<?xml version="1.0" encoding="iso-8859-1"?>
<!-- Generator: Adobe Illustrator 19.0.0, SVG Export Plug-In . SVG Version: 6.00 Build 0)  -->
<svg version="1.1" id="Layer_1" fill="currentColor" xmlns="http://www.w3.org/2000/svg" xmlns:xlink="http://www.w3.org/1999/xlink" x="0px" y="0px"
	 viewBox="0 0 512 512" style="enable-background:new 0 0 512 512;" xml:space="preserve">
<g>
	<g>
		<path d="M415.889,332.399l-18.662-18.662c-8.158-8.158-21.436-8.166-29.611,0l-21.393,21.402l-54.306,54.306
			c-1.092,1.092-1.869,2.466-2.244,3.959l-12.083,48.256c-0.725,2.91,0.128,5.982,2.244,8.107c1.613,1.621,3.797,2.5,6.033,2.5
			c0.691,0,1.382-0.085,2.065-0.256l48.282-12.058c1.502-0.375,2.876-1.152,3.968-2.244l75.708-75.699
			c3.951-3.951,6.135-9.216,6.135-14.805C422.025,341.615,419.849,336.358,415.889,332.399z M329.788,423.97l-32.188,8.038
			l8.047-32.171l46.601-46.601l24.141,24.141L329.788,423.97z M403.823,349.935l-15.368,15.369l-24.141-24.141l15.369-15.369
			c1.527-1.51,3.977-1.502,5.478,0l18.662,18.662c0.99,0.99,1.135,2.142,1.135,2.739
			C404.958,347.802,404.804,348.954,403.823,349.935z"/>
	</g>
</g>
<g>
	<g>
		<path d="M345.6,256c-70.579,0-128,57.421-128,128s57.421,128,128,128s128-57.421,128-128S416.179,256,345.6,256z M345.6,494.933
			c-61.167,0-110.933-49.766-110.933-110.933S284.433,273.067,345.6,273.067S456.533,322.833,456.533,384
			S406.767,494.933,345.6,494.933z"/>
	</g>
</g>
<g>
	<g>
		<path d="M226.133,469.333H55.467V409.6c0-4.71-3.823-8.533-8.533-8.533c-4.71,0-8.533,3.823-8.533,8.533v68.267
			c0,4.71,3.823,8.533,8.533,8.533h179.2c4.71,0,8.533-3.823,8.533-8.533S230.844,469.333,226.133,469.333z"/>
	</g>
</g>
<g>
	<g>
		<path d="M46.933,366.933c-4.71,0-8.533,3.823-8.533,8.533S42.223,384,46.933,384h0.085c4.71,0,8.491-3.823,8.491-8.533
			S51.644,366.933,46.933,366.933z"/>
	</g>
</g>
<g>
	<g>
		<path d="M394.3,139.034L257.766,2.5c-1.596-1.604-3.772-2.5-6.033-2.5h-204.8C42.223,0,38.4,3.823,38.4,8.533v332.8
			c0,4.71,3.823,8.533,8.533,8.533c4.71,0,8.533-3.823,8.533-8.533V17.067H243.2v128c0,4.71,3.823,8.533,8.533,8.533h128v76.8
			c0,4.71,3.823,8.533,8.533,8.533s8.533-3.823,8.533-8.533v-85.333C396.8,142.805,395.904,140.629,394.3,139.034z M260.267,136.533
			V29.133l107.401,107.401H260.267z"/>
	</g>
</g>
<g>
</g>
<g>
</g>
<g>
</g>
<g>
</g>
<g>
</g>
<g>
</g>
<g>
</g>
<g>
</g>
<g>
</g>
<g>
</g>
<g>
</g>
<g>
</g>
<g>
</g>
<g>
</g>
<g>
</g>
</svg>
