<svg width="217" height="25" viewBox="0 0 217 25" fill="none" xmlns="http://www.w3.org/2000/svg">
<mask id="path-1-inside-1_7_13" fill="white">
<path d="M6.92337 19.4854C3.06232 19.4854 0.140442 16.6679 0.140442 12.9373C0.140442 9.18056 3.08841 6.33695 6.92337 6.33695C8.87999 6.33695 10.6018 7.0935 11.828 8.45009L9.63655 10.6676C8.95825 9.93712 8.04517 9.54579 6.92337 9.54579C5.01894 9.54579 3.63626 10.9285 3.63626 12.9112C3.63626 14.92 5.01894 16.3026 6.92337 16.3026C8.07125 16.3026 9.01043 15.8852 9.66264 15.1287L11.8801 17.3462C10.6018 18.7549 8.90608 19.4854 6.92337 19.4854Z"/>
<path d="M13.8155 19.2245V0.362747H17.2331V7.79788C18.094 6.8848 19.3462 6.36303 20.8072 6.36303C23.6769 6.36303 25.7118 8.37182 25.7118 11.2415V19.2245H22.2942V11.9981C22.2942 10.5111 21.2507 9.46753 19.7637 9.46753C18.3027 9.46753 17.2331 10.5111 17.2331 11.9981V19.2245H13.8155Z"/>
<path d="M28.4647 19.2245V6.62392H31.8822V7.74571C32.6388 6.85871 33.7084 6.36303 35.1433 6.36303C36.3694 6.36303 37.3347 6.75436 38.1173 7.64135L35.9781 10.0936C35.5607 9.67623 35.065 9.46753 34.3606 9.46753C32.8736 9.46753 31.8822 10.3806 31.8822 12.259V19.2245H28.4647Z"/>
<path d="M41.0396 4.58903C39.9178 4.58903 39.1091 3.72812 39.1091 2.63242C39.1091 1.53672 39.9178 0.675806 41.0396 0.675806C42.1614 0.675806 42.9701 1.53672 42.9701 2.63242C42.9701 3.72812 42.1614 4.58903 41.0396 4.58903ZM39.3178 19.2245V6.62392H42.7614V19.2245H39.3178Z"/>
<path d="M50.1195 19.5115C47.9542 19.5115 45.8932 18.6506 44.641 17.1896L46.6759 15.1287C47.5368 16.0939 48.6847 16.5896 50.0934 16.5896C51.1891 16.5896 51.7892 16.2765 51.7892 15.6504C51.7892 13.5895 45.4497 14.8939 45.4497 10.2763C45.4497 7.87615 47.302 6.31086 50.3021 6.31086C52.3892 6.31086 54.1371 7.06741 55.2328 8.50227L53.1718 10.5632C52.4153 9.62406 51.4239 9.23274 50.3282 9.23274C49.3108 9.23274 48.7629 9.54579 48.7629 10.1197C48.7629 11.972 55.0763 10.8241 55.0763 15.4939C55.0763 17.9723 53.1718 19.5115 50.1195 19.5115Z"/>
<path d="M60.7462 19.2245L56.0242 6.62392H59.4679L62.0245 14.2938L64.6594 6.62392H67.1378L69.7727 14.2938L72.3293 6.62392H75.773L71.0771 19.2245H68.5987L65.9116 11.8416L63.1985 19.2245H60.7462Z"/>
<path d="M82.4206 19.4854C78.9769 19.4854 76.3681 16.6679 76.3681 12.9373C76.3681 9.20665 78.9769 6.36303 82.3945 6.36303C83.9076 6.36303 85.1859 6.91089 86.0729 7.82397V6.62392H89.4644V19.2245H86.0729V18.0245C85.1859 18.9375 83.9076 19.4854 82.4206 19.4854ZM83.0467 16.3287C84.9511 16.3287 86.2555 14.92 86.2555 12.9112C86.2555 10.9285 84.9511 9.51971 83.0467 9.51971C81.1683 9.51971 79.8639 10.9285 79.8639 12.9112C79.8639 14.92 81.1683 16.3287 83.0467 16.3287Z"/>
<path d="M92.4878 19.2245V6.62392H95.9053V7.74571C96.6619 6.85871 97.7315 6.36303 99.1664 6.36303C100.392 6.36303 101.358 6.75436 102.14 7.64135L100.001 10.0936C99.5838 9.67623 99.0881 9.46753 98.3837 9.46753C96.8967 9.46753 95.9053 10.3806 95.9053 12.259V19.2245H92.4878Z"/>
<path d="M109.011 19.4854C105.071 19.4854 102.149 16.72 102.149 12.9112C102.149 9.18056 105.045 6.33695 108.776 6.33695C112.376 6.33695 114.985 8.99794 114.985 12.6242C114.985 13.0677 114.933 13.5373 114.802 14.1112L105.593 14.1373C106.01 15.7026 107.237 16.6157 108.984 16.6157C110.237 16.6157 111.332 16.1722 112.089 15.3113L114.098 17.3201C112.846 18.7549 111.045 19.4854 109.011 19.4854ZM108.776 9.18056C107.158 9.20665 106.01 10.0936 105.593 11.5807H111.698C111.359 10.0154 110.367 9.18056 108.776 9.18056Z"/>
<path d="M137.654 19.4854C134.211 19.4854 131.602 16.6679 131.602 12.9373C131.602 9.20665 134.211 6.36303 137.628 6.36303C139.141 6.36303 140.42 6.91089 141.307 7.82397V6.62392H144.698V19.2245H141.307V18.0245C140.42 18.9375 139.141 19.4854 137.654 19.4854ZM138.28 16.3287C140.185 16.3287 141.489 14.92 141.489 12.9112C141.489 10.9285 140.185 9.51971 138.28 9.51971C136.402 9.51971 135.098 10.9285 135.098 12.9112C135.098 14.92 136.402 16.3287 138.28 16.3287Z"/>
<path d="M152.835 18.8854C149.417 18.8854 146.887 16.1722 146.887 12.5981C146.887 9.0762 149.417 6.36303 152.835 6.36303C154.322 6.36303 155.574 6.85871 156.435 7.69353V6.62392H159.826V18.5723C159.826 22.329 157.009 24.8074 152.991 24.8074C150.304 24.8074 148.217 23.816 146.991 22.0681L149.156 19.9028C150.095 21.0768 151.269 21.6768 152.965 21.6768C155.078 21.6768 156.409 20.555 156.409 18.6245V17.581C155.522 18.4158 154.296 18.8854 152.835 18.8854ZM153.513 15.7809C155.391 15.7809 156.617 14.4765 156.617 12.6242C156.617 10.7719 155.391 9.46753 153.513 9.46753C151.635 9.46753 150.382 10.798 150.382 12.6242C150.382 14.4243 151.635 15.7809 153.513 15.7809Z"/>
<path d="M168.855 19.4854C164.916 19.4854 161.994 16.72 161.994 12.9112C161.994 9.18056 164.89 6.33695 168.621 6.33695C172.221 6.33695 174.83 8.99794 174.83 12.6242C174.83 13.0677 174.777 13.5373 174.647 14.1112L165.438 14.1373C165.855 15.7026 167.081 16.6157 168.829 16.6157C170.082 16.6157 171.177 16.1722 171.934 15.3113L173.943 17.3201C172.69 18.7549 170.89 19.4854 168.855 19.4854ZM168.621 9.18056C167.003 9.20665 165.855 10.0936 165.438 11.5807H171.543C171.203 10.0154 170.212 9.18056 168.621 9.18056Z"/>
<path d="M176.943 19.2245V6.62392H180.361V7.82397C181.248 6.91089 182.526 6.36303 184.013 6.36303C186.805 6.36303 188.839 8.71097 188.839 11.2415V19.2245H185.422V11.9981C185.422 10.5111 184.378 9.46753 182.891 9.46753C181.43 9.46753 180.361 10.5111 180.361 11.9981V19.2245H176.943Z"/>
<path d="M197.54 19.4854C193.679 19.4854 190.758 16.6679 190.758 12.9373C190.758 9.18056 193.706 6.33695 197.54 6.33695C199.497 6.33695 201.219 7.0935 202.445 8.45009L200.254 10.6676C199.575 9.93712 198.662 9.54579 197.54 9.54579C195.636 9.54579 194.253 10.9285 194.253 12.9112C194.253 14.92 195.636 16.3026 197.54 16.3026C198.688 16.3026 199.628 15.8852 200.28 15.1287L202.497 17.3462C201.219 18.7549 199.523 19.4854 197.54 19.4854Z"/>
<path d="M204.902 24.4943L207.902 18.1549L203.128 6.62392H206.833L209.702 14.633L212.703 6.62392H216.433L208.528 24.4943H204.902Z"/>
<path d="M127.593 14.8333C127.593 17.2346 125.646 19.1813 123.245 19.1813C120.844 19.1813 118.897 17.2346 118.897 14.8333C118.897 12.4319 120.844 10.4853 123.245 10.4853C125.646 10.4853 127.593 12.4319 127.593 14.8333Z"/>
</mask>
<path d="M6.92337 19.4854C3.06232 19.4854 0.140442 16.6679 0.140442 12.9373C0.140442 9.18056 3.08841 6.33695 6.92337 6.33695C8.87999 6.33695 10.6018 7.0935 11.828 8.45009L9.63655 10.6676C8.95825 9.93712 8.04517 9.54579 6.92337 9.54579C5.01894 9.54579 3.63626 10.9285 3.63626 12.9112C3.63626 14.92 5.01894 16.3026 6.92337 16.3026C8.07125 16.3026 9.01043 15.8852 9.66264 15.1287L11.8801 17.3462C10.6018 18.7549 8.90608 19.4854 6.92337 19.4854Z" fill="#1A2733"/>
<path d="M13.8155 19.2245V0.362747H17.2331V7.79788C18.094 6.8848 19.3462 6.36303 20.8072 6.36303C23.6769 6.36303 25.7118 8.37182 25.7118 11.2415V19.2245H22.2942V11.9981C22.2942 10.5111 21.2507 9.46753 19.7637 9.46753C18.3027 9.46753 17.2331 10.5111 17.2331 11.9981V19.2245H13.8155Z" fill="#1A2733"/>
<path d="M28.4647 19.2245V6.62392H31.8822V7.74571C32.6388 6.85871 33.7084 6.36303 35.1433 6.36303C36.3694 6.36303 37.3347 6.75436 38.1173 7.64135L35.9781 10.0936C35.5607 9.67623 35.065 9.46753 34.3606 9.46753C32.8736 9.46753 31.8822 10.3806 31.8822 12.259V19.2245H28.4647Z" fill="#1A2733"/>
<path d="M41.0396 4.58903C39.9178 4.58903 39.1091 3.72812 39.1091 2.63242C39.1091 1.53672 39.9178 0.675806 41.0396 0.675806C42.1614 0.675806 42.9701 1.53672 42.9701 2.63242C42.9701 3.72812 42.1614 4.58903 41.0396 4.58903ZM39.3178 19.2245V6.62392H42.7614V19.2245H39.3178Z" fill="#1A2733"/>
<path d="M50.1195 19.5115C47.9542 19.5115 45.8932 18.6506 44.641 17.1896L46.6759 15.1287C47.5368 16.0939 48.6847 16.5896 50.0934 16.5896C51.1891 16.5896 51.7892 16.2765 51.7892 15.6504C51.7892 13.5895 45.4497 14.8939 45.4497 10.2763C45.4497 7.87615 47.302 6.31086 50.3021 6.31086C52.3892 6.31086 54.1371 7.06741 55.2328 8.50227L53.1718 10.5632C52.4153 9.62406 51.4239 9.23274 50.3282 9.23274C49.3108 9.23274 48.7629 9.54579 48.7629 10.1197C48.7629 11.972 55.0763 10.8241 55.0763 15.4939C55.0763 17.9723 53.1718 19.5115 50.1195 19.5115Z" fill="#1A2733"/>
<path d="M60.7462 19.2245L56.0242 6.62392H59.4679L62.0245 14.2938L64.6594 6.62392H67.1378L69.7727 14.2938L72.3293 6.62392H75.773L71.0771 19.2245H68.5987L65.9116 11.8416L63.1985 19.2245H60.7462Z" fill="#1A2733"/>
<path d="M82.4206 19.4854C78.9769 19.4854 76.3681 16.6679 76.3681 12.9373C76.3681 9.20665 78.9769 6.36303 82.3945 6.36303C83.9076 6.36303 85.1859 6.91089 86.0729 7.82397V6.62392H89.4644V19.2245H86.0729V18.0245C85.1859 18.9375 83.9076 19.4854 82.4206 19.4854ZM83.0467 16.3287C84.9511 16.3287 86.2555 14.92 86.2555 12.9112C86.2555 10.9285 84.9511 9.51971 83.0467 9.51971C81.1683 9.51971 79.8639 10.9285 79.8639 12.9112C79.8639 14.92 81.1683 16.3287 83.0467 16.3287Z" fill="#1A2733"/>
<path d="M92.4878 19.2245V6.62392H95.9053V7.74571C96.6619 6.85871 97.7315 6.36303 99.1664 6.36303C100.392 6.36303 101.358 6.75436 102.14 7.64135L100.001 10.0936C99.5838 9.67623 99.0881 9.46753 98.3837 9.46753C96.8967 9.46753 95.9053 10.3806 95.9053 12.259V19.2245H92.4878Z" fill="#1A2733"/>
<path d="M109.011 19.4854C105.071 19.4854 102.149 16.72 102.149 12.9112C102.149 9.18056 105.045 6.33695 108.776 6.33695C112.376 6.33695 114.985 8.99794 114.985 12.6242C114.985 13.0677 114.933 13.5373 114.802 14.1112L105.593 14.1373C106.01 15.7026 107.237 16.6157 108.984 16.6157C110.237 16.6157 111.332 16.1722 112.089 15.3113L114.098 17.3201C112.846 18.7549 111.045 19.4854 109.011 19.4854ZM108.776 9.18056C107.158 9.20665 106.01 10.0936 105.593 11.5807H111.698C111.359 10.0154 110.367 9.18056 108.776 9.18056Z" fill="#1A2733"/>
<path d="M137.654 19.4854C134.211 19.4854 131.602 16.6679 131.602 12.9373C131.602 9.20665 134.211 6.36303 137.628 6.36303C139.141 6.36303 140.42 6.91089 141.307 7.82397V6.62392H144.698V19.2245H141.307V18.0245C140.42 18.9375 139.141 19.4854 137.654 19.4854ZM138.28 16.3287C140.185 16.3287 141.489 14.92 141.489 12.9112C141.489 10.9285 140.185 9.51971 138.28 9.51971C136.402 9.51971 135.098 10.9285 135.098 12.9112C135.098 14.92 136.402 16.3287 138.28 16.3287Z" fill="#1A2733"/>
<path d="M152.835 18.8854C149.417 18.8854 146.887 16.1722 146.887 12.5981C146.887 9.0762 149.417 6.36303 152.835 6.36303C154.322 6.36303 155.574 6.85871 156.435 7.69353V6.62392H159.826V18.5723C159.826 22.329 157.009 24.8074 152.991 24.8074C150.304 24.8074 148.217 23.816 146.991 22.0681L149.156 19.9028C150.095 21.0768 151.269 21.6768 152.965 21.6768C155.078 21.6768 156.409 20.555 156.409 18.6245V17.581C155.522 18.4158 154.296 18.8854 152.835 18.8854ZM153.513 15.7809C155.391 15.7809 156.617 14.4765 156.617 12.6242C156.617 10.7719 155.391 9.46753 153.513 9.46753C151.635 9.46753 150.382 10.798 150.382 12.6242C150.382 14.4243 151.635 15.7809 153.513 15.7809Z" fill="#1A2733"/>
<path d="M168.855 19.4854C164.916 19.4854 161.994 16.72 161.994 12.9112C161.994 9.18056 164.89 6.33695 168.621 6.33695C172.221 6.33695 174.83 8.99794 174.83 12.6242C174.83 13.0677 174.777 13.5373 174.647 14.1112L165.438 14.1373C165.855 15.7026 167.081 16.6157 168.829 16.6157C170.082 16.6157 171.177 16.1722 171.934 15.3113L173.943 17.3201C172.69 18.7549 170.89 19.4854 168.855 19.4854ZM168.621 9.18056C167.003 9.20665 165.855 10.0936 165.438 11.5807H171.543C171.203 10.0154 170.212 9.18056 168.621 9.18056Z" fill="#1A2733"/>
<path d="M176.943 19.2245V6.62392H180.361V7.82397C181.248 6.91089 182.526 6.36303 184.013 6.36303C186.805 6.36303 188.839 8.71097 188.839 11.2415V19.2245H185.422V11.9981C185.422 10.5111 184.378 9.46753 182.891 9.46753C181.43 9.46753 180.361 10.5111 180.361 11.9981V19.2245H176.943Z" fill="#1A2733"/>
<path d="M197.54 19.4854C193.679 19.4854 190.758 16.6679 190.758 12.9373C190.758 9.18056 193.706 6.33695 197.54 6.33695C199.497 6.33695 201.219 7.0935 202.445 8.45009L200.254 10.6676C199.575 9.93712 198.662 9.54579 197.54 9.54579C195.636 9.54579 194.253 10.9285 194.253 12.9112C194.253 14.92 195.636 16.3026 197.54 16.3026C198.688 16.3026 199.628 15.8852 200.28 15.1287L202.497 17.3462C201.219 18.7549 199.523 19.4854 197.54 19.4854Z" fill="#1A2733"/>
<path d="M204.902 24.4943L207.902 18.1549L203.128 6.62392H206.833L209.702 14.633L212.703 6.62392H216.433L208.528 24.4943H204.902Z" fill="#1A2733"/>
<path d="M127.593 14.8333C127.593 17.2346 125.646 19.1813 123.245 19.1813C120.844 19.1813 118.897 17.2346 118.897 14.8333C118.897 12.4319 120.844 10.4853 123.245 10.4853C125.646 10.4853 127.593 12.4319 127.593 14.8333Z" fill="#2BFFEA"/>
<path d="M6.92337 19.4854C3.06232 19.4854 0.140442 16.6679 0.140442 12.9373C0.140442 9.18056 3.08841 6.33695 6.92337 6.33695C8.87999 6.33695 10.6018 7.0935 11.828 8.45009L9.63655 10.6676C8.95825 9.93712 8.04517 9.54579 6.92337 9.54579C5.01894 9.54579 3.63626 10.9285 3.63626 12.9112C3.63626 14.92 5.01894 16.3026 6.92337 16.3026C8.07125 16.3026 9.01043 15.8852 9.66264 15.1287L11.8801 17.3462C10.6018 18.7549 8.90608 19.4854 6.92337 19.4854Z" stroke="#1A2733" stroke-width="2" mask="url(#path-1-inside-1_7_13)"/>
<path d="M13.8155 19.2245V0.362747H17.2331V7.79788C18.094 6.8848 19.3462 6.36303 20.8072 6.36303C23.6769 6.36303 25.7118 8.37182 25.7118 11.2415V19.2245H22.2942V11.9981C22.2942 10.5111 21.2507 9.46753 19.7637 9.46753C18.3027 9.46753 17.2331 10.5111 17.2331 11.9981V19.2245H13.8155Z" stroke="#1A2733" stroke-width="2" mask="url(#path-1-inside-1_7_13)"/>
<path d="M28.4647 19.2245V6.62392H31.8822V7.74571C32.6388 6.85871 33.7084 6.36303 35.1433 6.36303C36.3694 6.36303 37.3347 6.75436 38.1173 7.64135L35.9781 10.0936C35.5607 9.67623 35.065 9.46753 34.3606 9.46753C32.8736 9.46753 31.8822 10.3806 31.8822 12.259V19.2245H28.4647Z" stroke="#1A2733" stroke-width="2" mask="url(#path-1-inside-1_7_13)"/>
<path d="M41.0396 4.58903C39.9178 4.58903 39.1091 3.72812 39.1091 2.63242C39.1091 1.53672 39.9178 0.675806 41.0396 0.675806C42.1614 0.675806 42.9701 1.53672 42.9701 2.63242C42.9701 3.72812 42.1614 4.58903 41.0396 4.58903ZM39.3178 19.2245V6.62392H42.7614V19.2245H39.3178Z" stroke="#1A2733" stroke-width="2" mask="url(#path-1-inside-1_7_13)"/>
<path d="M50.1195 19.5115C47.9542 19.5115 45.8932 18.6506 44.641 17.1896L46.6759 15.1287C47.5368 16.0939 48.6847 16.5896 50.0934 16.5896C51.1891 16.5896 51.7892 16.2765 51.7892 15.6504C51.7892 13.5895 45.4497 14.8939 45.4497 10.2763C45.4497 7.87615 47.302 6.31086 50.3021 6.31086C52.3892 6.31086 54.1371 7.06741 55.2328 8.50227L53.1718 10.5632C52.4153 9.62406 51.4239 9.23274 50.3282 9.23274C49.3108 9.23274 48.7629 9.54579 48.7629 10.1197C48.7629 11.972 55.0763 10.8241 55.0763 15.4939C55.0763 17.9723 53.1718 19.5115 50.1195 19.5115Z" stroke="#1A2733" stroke-width="2" mask="url(#path-1-inside-1_7_13)"/>
<path d="M60.7462 19.2245L56.0242 6.62392H59.4679L62.0245 14.2938L64.6594 6.62392H67.1378L69.7727 14.2938L72.3293 6.62392H75.773L71.0771 19.2245H68.5987L65.9116 11.8416L63.1985 19.2245H60.7462Z" stroke="#1A2733" stroke-width="2" mask="url(#path-1-inside-1_7_13)"/>
<path d="M82.4206 19.4854C78.9769 19.4854 76.3681 16.6679 76.3681 12.9373C76.3681 9.20665 78.9769 6.36303 82.3945 6.36303C83.9076 6.36303 85.1859 6.91089 86.0729 7.82397V6.62392H89.4644V19.2245H86.0729V18.0245C85.1859 18.9375 83.9076 19.4854 82.4206 19.4854ZM83.0467 16.3287C84.9511 16.3287 86.2555 14.92 86.2555 12.9112C86.2555 10.9285 84.9511 9.51971 83.0467 9.51971C81.1683 9.51971 79.8639 10.9285 79.8639 12.9112C79.8639 14.92 81.1683 16.3287 83.0467 16.3287Z" stroke="#1A2733" stroke-width="2" mask="url(#path-1-inside-1_7_13)"/>
<path d="M92.4878 19.2245V6.62392H95.9053V7.74571C96.6619 6.85871 97.7315 6.36303 99.1664 6.36303C100.392 6.36303 101.358 6.75436 102.14 7.64135L100.001 10.0936C99.5838 9.67623 99.0881 9.46753 98.3837 9.46753C96.8967 9.46753 95.9053 10.3806 95.9053 12.259V19.2245H92.4878Z" stroke="#1A2733" stroke-width="2" mask="url(#path-1-inside-1_7_13)"/>
<path d="M109.011 19.4854C105.071 19.4854 102.149 16.72 102.149 12.9112C102.149 9.18056 105.045 6.33695 108.776 6.33695C112.376 6.33695 114.985 8.99794 114.985 12.6242C114.985 13.0677 114.933 13.5373 114.802 14.1112L105.593 14.1373C106.01 15.7026 107.237 16.6157 108.984 16.6157C110.237 16.6157 111.332 16.1722 112.089 15.3113L114.098 17.3201C112.846 18.7549 111.045 19.4854 109.011 19.4854ZM108.776 9.18056C107.158 9.20665 106.01 10.0936 105.593 11.5807H111.698C111.359 10.0154 110.367 9.18056 108.776 9.18056Z" stroke="#1A2733" stroke-width="2" mask="url(#path-1-inside-1_7_13)"/>
<path d="M137.654 19.4854C134.211 19.4854 131.602 16.6679 131.602 12.9373C131.602 9.20665 134.211 6.36303 137.628 6.36303C139.141 6.36303 140.42 6.91089 141.307 7.82397V6.62392H144.698V19.2245H141.307V18.0245C140.42 18.9375 139.141 19.4854 137.654 19.4854ZM138.28 16.3287C140.185 16.3287 141.489 14.92 141.489 12.9112C141.489 10.9285 140.185 9.51971 138.28 9.51971C136.402 9.51971 135.098 10.9285 135.098 12.9112C135.098 14.92 136.402 16.3287 138.28 16.3287Z" stroke="#1A2733" stroke-width="2" mask="url(#path-1-inside-1_7_13)"/>
<path d="M152.835 18.8854C149.417 18.8854 146.887 16.1722 146.887 12.5981C146.887 9.0762 149.417 6.36303 152.835 6.36303C154.322 6.36303 155.574 6.85871 156.435 7.69353V6.62392H159.826V18.5723C159.826 22.329 157.009 24.8074 152.991 24.8074C150.304 24.8074 148.217 23.816 146.991 22.0681L149.156 19.9028C150.095 21.0768 151.269 21.6768 152.965 21.6768C155.078 21.6768 156.409 20.555 156.409 18.6245V17.581C155.522 18.4158 154.296 18.8854 152.835 18.8854ZM153.513 15.7809C155.391 15.7809 156.617 14.4765 156.617 12.6242C156.617 10.7719 155.391 9.46753 153.513 9.46753C151.635 9.46753 150.382 10.798 150.382 12.6242C150.382 14.4243 151.635 15.7809 153.513 15.7809Z" stroke="#1A2733" stroke-width="2" mask="url(#path-1-inside-1_7_13)"/>
<path d="M168.855 19.4854C164.916 19.4854 161.994 16.72 161.994 12.9112C161.994 9.18056 164.89 6.33695 168.621 6.33695C172.221 6.33695 174.83 8.99794 174.83 12.6242C174.83 13.0677 174.777 13.5373 174.647 14.1112L165.438 14.1373C165.855 15.7026 167.081 16.6157 168.829 16.6157C170.082 16.6157 171.177 16.1722 171.934 15.3113L173.943 17.3201C172.69 18.7549 170.89 19.4854 168.855 19.4854ZM168.621 9.18056C167.003 9.20665 165.855 10.0936 165.438 11.5807H171.543C171.203 10.0154 170.212 9.18056 168.621 9.18056Z" stroke="#1A2733" stroke-width="2" mask="url(#path-1-inside-1_7_13)"/>
<path d="M176.943 19.2245V6.62392H180.361V7.82397C181.248 6.91089 182.526 6.36303 184.013 6.36303C186.805 6.36303 188.839 8.71097 188.839 11.2415V19.2245H185.422V11.9981C185.422 10.5111 184.378 9.46753 182.891 9.46753C181.43 9.46753 180.361 10.5111 180.361 11.9981V19.2245H176.943Z" stroke="#1A2733" stroke-width="2" mask="url(#path-1-inside-1_7_13)"/>
<path d="M197.54 19.4854C193.679 19.4854 190.758 16.6679 190.758 12.9373C190.758 9.18056 193.706 6.33695 197.54 6.33695C199.497 6.33695 201.219 7.0935 202.445 8.45009L200.254 10.6676C199.575 9.93712 198.662 9.54579 197.54 9.54579C195.636 9.54579 194.253 10.9285 194.253 12.9112C194.253 14.92 195.636 16.3026 197.54 16.3026C198.688 16.3026 199.628 15.8852 200.28 15.1287L202.497 17.3462C201.219 18.7549 199.523 19.4854 197.54 19.4854Z" stroke="#1A2733" stroke-width="2" mask="url(#path-1-inside-1_7_13)"/>
<path d="M204.902 24.4943L207.902 18.1549L203.128 6.62392H206.833L209.702 14.633L212.703 6.62392H216.433L208.528 24.4943H204.902Z" stroke="#1A2733" stroke-width="2" mask="url(#path-1-inside-1_7_13)"/>
<path d="M127.593 14.8333C127.593 17.2346 125.646 19.1813 123.245 19.1813C120.844 19.1813 118.897 17.2346 118.897 14.8333C118.897 12.4319 120.844 10.4853 123.245 10.4853C125.646 10.4853 127.593 12.4319 127.593 14.8333Z" stroke="#1A2733" stroke-width="2" mask="url(#path-1-inside-1_7_13)"/>
</svg>
